<svg version="1" xmlns="http://www.w3.org/2000/svg" width="346.667" height="346.667" viewBox="0 0 260.000000 260.000000"><path d="M13 127.7c0 47.5.3 86.4.8 86.4.4.1 4.2.2 8.5.3l7.7.1.1-3c0-1.6.1-28.1.1-58.8 0-30.7.4-55.5.8-55 .4.4 10.6 26.4 22.5 57.8 12 31.4 22.1 57.5 22.6 58.1.6.8 11.9 1.2 14.9.5.4-.1.5-170 .1-172.2-.1-.3-3.9-.6-8.6-.5h-8.4V97c0 30.5-.1 57.1-.1 59l-.1 3.5-1.4-3c-.8-1.7-8-20.3-16-41.5-16.6-43.9-18.3-48.4-20-52.5-.7-1.7-2.8-7.1-4.7-12l-3.4-9h-7.7l-7.7-.1v86.3zM110.3 128l.2 86.5h7.5c4.1.1 8 0 8.5-.2.7-.2 1-10.2 1-29.2v-28.9l13-.4c14.9-.4 18.1-1.5 25.1-9 9-9.4 13.5-24.8 13.9-47.3.3-25.2-6.8-45.3-19-53.6-5.6-3.9-8.4-4.3-30.7-4.4l-19.7-.1.2 86.6zm39.9-58.7c7.9 3.4 11.7 13.8 11.4 31.4-.1 10.3-.5 12.5-2.8 17.3-3 6.5-5.5 9.6-9 10.9-2.2.8-11.8 1.4-19.8 1.2l-2.5-.1V99.2c-.1-16.9.3-30.9.6-31.2 1.7-1.2 18.6-.2 22.1 1.3zM194.8 42.4c-.3.9-.2 168.2.1 171.1.1.7 10.2 1 29.4 1h29.2l.3-13.2.3-13.2-20.8.1h-20.8l-.5-73.3-.5-73.4-8.2-.1c-5.3-.1-8.3.3-8.5 1z"/></svg>