<svg version="1" xmlns="http://www.w3.org/2000/svg" width="346.667" height="346.667" viewBox="0 0 260.000000 260.000000"><path d="M.2 130l.1 130h12.4l-.4-100.8c-.1-55.4-.4-103.7-.6-107.5-.3-6.5.6-9.1 1.5-4.5.3 1.3 2.4 9.5 4.7 18.3 2.4 8.8 7.1 27 10.6 40.5s7.1 27.2 8 30.5c2.5 9.1 9.7 36.8 10 38.5.2.8 2 7.8 4 15.5 2.1 7.7 7 26.4 10.9 41.5l7.2 27.5 7.4.3c4 .2 7.6-.1 7.9-.7.3-.5.6-58.9.6-129.8L84.4.5 78.2.2C72-.1 72-.1 72 2.7c-.2 14 .2 179.1.4 193.3l.4 18.5-1.8-6C69.6 203.7 45.9 114 44.5 108c-.2-.8-2.2-8.3-4.3-16.5C38 83.2 33.5 65.9 30.1 53c-3.3-12.9-7.8-30-9.9-38L16.3.5l-8-.3L.2-.1V130zM113 130v130h13.6v-50.6c-.1-32.9.2-50.8.9-51 .6-.1 5.3-.5 10.6-.7 11.8-.5 18.6-3.3 24.9-10.5 7-7.8 13.4-23.6 15.4-37.9.3-2.1 1-6.7 1.5-10.3 1.5-10.5.7-48.1-1.3-58-4-19.8-10.1-31.8-19.4-38l-4.5-3H113v130zm36-102.3c9.3 3.7 14.9 14 17.5 31.8.7 5 .7 29.6 0 35-2.3 17.9-7.6 27.9-17 32.5-5.3 2.6-22.4 3.9-22.6 1.8-.3-4.1-.4-101.4-.1-102.1.7-1.4 18.4-.5 22.2 1zM203 130v130h57.1l-.3-14.7-.3-14.8-21.2.1c-18.4 0-21.2-.2-21.5-1.5-.2-.9-.3-52.8-.3-115.4L216.6 0H203v130z"/></svg>